# xmcd
#
# Track frame offsets:
#	150
#	21190
#	51185
#	74135
#	93852
#	115032
#	130620
#	152292
#	167477
#	189865
#
# Disc length: 2833 seconds
#
# Revision: 792686821
# Processed by: cddbd v1.5.2PL0 Copyright (c) Steve Scherf et al.
# Submitted via: EZCDAudioConverter 8.0.2.1
#
DISCID=730b0f0a
DTITLE=Various Artist - Một Ngày Không Có Anh
DYEAR=1993
DGENRE=
TTITLE0=Lâm Thúy Vân - Một Ngày Không Có Anh
TTITLE1=Julie - Tất cả cho anh
TTITLE2=Kenny Thái - Những lời mê hoặc
TTITLE3=Lâm Thúy Vân - Xin một ngày mai có nhau
TTITLE4=Ngọc Lan - Biết nơi đâu tìm
TTITLE5=Trịnh Nam Sơn - Tôi di giưa hoàng hôn
TTITLE6=Kiều Nga - Ngàn năm vẫn đợi
TTITLE7=Lâm Thúy Vân - Tuyết kha
TTITLE8=Julie - Lệ đá
TTITLE9=Kiều Nga - Yêu em bằng trái tim anh
EXTD=
EXTT0=
EXTT1=
EXTT2=
EXTT3=
EXTT4=
EXTT5=
EXTT6=
EXTT7=
EXTT8=
EXTT9=
PLAYORDER=
